# xmcd CD database file
#
# Track frame offsets:
#	157
#	12530
#	28645
#	46020
#	57202
#	71087
#	82305
#	93230
#	102467
#	112850
#	125452
#	136032
#	149482
#	164425
#	175487
#	190672
#	202540
#	216827
#
# Disc length: 3043 seconds
#
# Submitted via: cddb-tool 0.4.5
#
#blues,classical,country,data,folk,jazz,newage,reggae,rock,soundtrack,misc
# Revision: 0
# Processed by: cddbd v1.5.1PL2 Copyright (c) Steve Scherf et al.
#
DISCID=fa0be112
DTITLE=Robert Cogoi - Mes premiers grands succes Vol.3
DYEAR=2002
DGENRE=Chanson
TTITLE0=Mes Souvenirs
TTITLE1=Rien N'a Change
TTITLE2=Esperanza
TTITLE3=Je T'aime Plus Fort
TTITLE4=Depuis Que Je L'aime
TTITLE5=Toute Une Vie
TTITLE6=Tu Mens Mon Amour
TTITLE7=Pluie D'automne
TTITLE8=Pour Le Meilleur Et Pour Le Pire
TTITLE9=Les Mamans Et Les Papas
TTITLE10=Nake Di Nake Dou
TTITLE11=Les Fous Du Volant
TTITLE12=Vous Qui Passez Sans Me Voir
TTITLE13=Mon Petit Ange
TTITLE14=Mama Bongo
TTITLE15=Je Chante
TTITLE16=L'angelus
TTITLE17=Doux Doux Doux (Version Italienne)
EXTD=
EXTT0=
EXTT1=
EXTT2=
EXTT3=
EXTT4=
EXTT5=
EXTT6=
EXTT7=
EXTT8=
EXTT9=
EXTT10=
EXTT11=
EXTT12=
EXTT13=
EXTT14=
EXTT15=
EXTT16=
EXTT17=
PLAYORDER=
